<mxfile host="app.diagrams.net" modified="2024-07-11T00:43:14.590Z" agent="Mozilla/5.0 (Windows NT 10.0; Win64; x64) AppleWebKit/537.36 (KHTML, like Gecko) Chrome/126.0.0.0 Safari/537.36" etag="ijEEuD6FNQQmFONEQbMR" version="24.6.4" type="google">
  <diagram name="Page-1" id="N63z_VI2OmI_4_Hd65DB">
    <mxGraphModel grid="0" page="1" gridSize="10" guides="1" tooltips="1" connect="1" arrows="1" fold="1" pageScale="1" pageWidth="850" pageHeight="1100" math="0" shadow="0">
      <root>
        <mxCell id="0" />
        <mxCell id="1" parent="0" />
        <mxCell id="yczUUUUAiozMbP2jTNsx-2" style="edgeStyle=none;curved=1;rounded=0;orthogonalLoop=1;jettySize=auto;html=1;fontSize=12;startSize=8;endSize=8;endArrow=none;endFill=0;" edge="1" parent="1" source="EpNeO9gsmtCJuBGKOI6r-1" target="EpNeO9gsmtCJuBGKOI6r-4">
          <mxGeometry relative="1" as="geometry" />
        </mxCell>
        <mxCell id="yczUUUUAiozMbP2jTNsx-14" style="edgeStyle=orthogonalEdgeStyle;rounded=0;orthogonalLoop=1;jettySize=auto;html=1;entryX=0;entryY=0.5;entryDx=0;entryDy=0;fontSize=12;startSize=8;endSize=8;endArrow=none;endFill=0;exitX=0;exitY=0.5;exitDx=0;exitDy=0;" edge="1" parent="1" source="yczUUUUAiozMbP2jTNsx-35" target="yczUUUUAiozMbP2jTNsx-13">
          <mxGeometry relative="1" as="geometry">
            <Array as="points">
              <mxPoint x="-549" y="332" />
              <mxPoint x="-549" y="520" />
            </Array>
          </mxGeometry>
        </mxCell>
        <mxCell id="yczUUUUAiozMbP2jTNsx-26" style="edgeStyle=none;curved=1;rounded=0;orthogonalLoop=1;jettySize=auto;html=1;entryX=0.5;entryY=0;entryDx=0;entryDy=0;fontSize=12;startSize=8;endSize=8;endArrow=none;endFill=0;" edge="1" parent="1" source="EpNeO9gsmtCJuBGKOI6r-1" target="yczUUUUAiozMbP2jTNsx-25">
          <mxGeometry relative="1" as="geometry" />
        </mxCell>
        <mxCell id="yczUUUUAiozMbP2jTNsx-38" style="edgeStyle=none;curved=1;rounded=0;orthogonalLoop=1;jettySize=auto;html=1;fontSize=12;startSize=8;endSize=8;endArrow=none;endFill=0;strokeWidth=2;" edge="1" parent="1" source="EpNeO9gsmtCJuBGKOI6r-1">
          <mxGeometry relative="1" as="geometry">
            <mxPoint x="-549.3333333333334" y="430" as="targetPoint" />
          </mxGeometry>
        </mxCell>
        <mxCell id="yczUUUUAiozMbP2jTNsx-41" style="edgeStyle=none;curved=1;rounded=0;orthogonalLoop=1;jettySize=auto;html=1;entryX=0.5;entryY=1;entryDx=0;entryDy=0;fontSize=12;startSize=8;endSize=8;endArrow=none;endFill=0;" edge="1" parent="1" target="yczUUUUAiozMbP2jTNsx-39">
          <mxGeometry relative="1" as="geometry">
            <mxPoint x="-612" y="385" as="sourcePoint" />
          </mxGeometry>
        </mxCell>
        <mxCell id="EpNeO9gsmtCJuBGKOI6r-1" value="&lt;div&gt;&lt;br&gt;&lt;/div&gt;" style="shape=umlActor;verticalLabelPosition=bottom;verticalAlign=top;html=1;outlineConnect=0;" vertex="1" parent="1">
          <mxGeometry x="-627" y="400" width="30" height="60" as="geometry" />
        </mxCell>
        <mxCell id="yczUUUUAiozMbP2jTNsx-11" style="edgeStyle=none;curved=1;rounded=0;orthogonalLoop=1;jettySize=auto;html=1;exitX=1;exitY=0.5;exitDx=0;exitDy=0;fontSize=12;dashed=1;" edge="1" parent="1" source="EpNeO9gsmtCJuBGKOI6r-4" target="yczUUUUAiozMbP2jTNsx-8">
          <mxGeometry relative="1" as="geometry" />
        </mxCell>
        <mxCell id="EpNeO9gsmtCJuBGKOI6r-4" value="Manage Client Information" style="ellipse;whiteSpace=wrap;html=1;" vertex="1" parent="1">
          <mxGeometry x="-440" y="390" width="120" height="80" as="geometry" />
        </mxCell>
        <mxCell id="yczUUUUAiozMbP2jTNsx-8" value="Add Client" style="ellipse;whiteSpace=wrap;html=1;" vertex="1" parent="1">
          <mxGeometry x="-243" y="390" width="120" height="80" as="geometry" />
        </mxCell>
        <mxCell id="yczUUUUAiozMbP2jTNsx-12" value="&lt;font style=&quot;font-size: 7px;&quot;&gt;&amp;lt;&amp;lt;Includes&amp;gt;&amp;gt;&lt;/font&gt;" style="text;html=1;align=center;verticalAlign=middle;resizable=0;points=[];autosize=1;strokeColor=none;fillColor=none;fontSize=16;" vertex="1" parent="1">
          <mxGeometry x="-314" y="400" width="60" height="31" as="geometry" />
        </mxCell>
        <mxCell id="yczUUUUAiozMbP2jTNsx-13" value="Manage Pet Information" style="ellipse;whiteSpace=wrap;html=1;" vertex="1" parent="1">
          <mxGeometry x="-333" y="480" width="120" height="80" as="geometry" />
        </mxCell>
        <mxCell id="yczUUUUAiozMbP2jTNsx-20" style="edgeStyle=orthogonalEdgeStyle;rounded=0;orthogonalLoop=1;jettySize=auto;html=1;exitX=0;exitY=0.5;exitDx=0;exitDy=0;entryX=0.5;entryY=0;entryDx=0;entryDy=0;fontSize=12;startSize=8;endSize=8;endArrow=none;endFill=0;" edge="1" parent="1" source="yczUUUUAiozMbP2jTNsx-15" target="yczUUUUAiozMbP2jTNsx-18">
          <mxGeometry relative="1" as="geometry">
            <Array as="points">
              <mxPoint x="-273" y="586" />
              <mxPoint x="-208" y="586" />
              <mxPoint x="-208" y="617" />
            </Array>
          </mxGeometry>
        </mxCell>
        <mxCell id="yczUUUUAiozMbP2jTNsx-21" style="edgeStyle=orthogonalEdgeStyle;rounded=0;orthogonalLoop=1;jettySize=auto;html=1;exitX=0;exitY=0.5;exitDx=0;exitDy=0;entryX=0.5;entryY=0;entryDx=0;entryDy=0;fontSize=12;startSize=8;endSize=8;endArrow=none;endFill=0;" edge="1" parent="1" source="yczUUUUAiozMbP2jTNsx-15" target="yczUUUUAiozMbP2jTNsx-16">
          <mxGeometry relative="1" as="geometry">
            <Array as="points">
              <mxPoint x="-273" y="586" />
              <mxPoint x="-344" y="586" />
              <mxPoint x="-344" y="617" />
            </Array>
          </mxGeometry>
        </mxCell>
        <mxCell id="yczUUUUAiozMbP2jTNsx-15" value="" style="triangle;whiteSpace=wrap;html=1;rotation=-90;" vertex="1" parent="1">
          <mxGeometry x="-279.5" y="560" width="13" height="16" as="geometry" />
        </mxCell>
        <mxCell id="yczUUUUAiozMbP2jTNsx-22" style="edgeStyle=none;curved=1;rounded=0;orthogonalLoop=1;jettySize=auto;html=1;exitX=0.5;exitY=1;exitDx=0;exitDy=0;entryX=0.5;entryY=0;entryDx=0;entryDy=0;fontSize=12;startSize=8;endSize=8;dashed=1;" edge="1" parent="1" source="yczUUUUAiozMbP2jTNsx-16" target="yczUUUUAiozMbP2jTNsx-17">
          <mxGeometry relative="1" as="geometry" />
        </mxCell>
        <mxCell id="yczUUUUAiozMbP2jTNsx-16" value="Add Pet" style="ellipse;whiteSpace=wrap;html=1;" vertex="1" parent="1">
          <mxGeometry x="-403" y="617" width="120" height="80" as="geometry" />
        </mxCell>
        <mxCell id="yczUUUUAiozMbP2jTNsx-17" value="Assign Pet to Owner" style="ellipse;whiteSpace=wrap;html=1;" vertex="1" parent="1">
          <mxGeometry x="-403" y="731" width="120" height="80" as="geometry" />
        </mxCell>
        <mxCell id="yczUUUUAiozMbP2jTNsx-18" value="Remove Pet" style="ellipse;whiteSpace=wrap;html=1;" vertex="1" parent="1">
          <mxGeometry x="-266.5" y="617" width="120" height="80" as="geometry" />
        </mxCell>
        <mxCell id="yczUUUUAiozMbP2jTNsx-23" value="&lt;font style=&quot;font-size: 7px;&quot;&gt;&amp;lt;&amp;lt;Includes&amp;gt;&amp;gt;&lt;/font&gt;" style="text;html=1;align=center;verticalAlign=middle;resizable=0;points=[];autosize=1;strokeColor=none;fillColor=none;fontSize=16;" vertex="1" parent="1">
          <mxGeometry x="-339.5" y="697" width="60" height="31" as="geometry" />
        </mxCell>
        <mxCell id="yczUUUUAiozMbP2jTNsx-25" value="Print Information Sheet" style="ellipse;whiteSpace=wrap;html=1;" vertex="1" parent="1">
          <mxGeometry x="-672" y="619" width="120" height="80" as="geometry" />
        </mxCell>
        <mxCell id="yczUUUUAiozMbP2jTNsx-27" value="&lt;font style=&quot;font-size: 9px;&quot;&gt;Employee Actor&lt;/font&gt;" style="text;html=1;align=center;verticalAlign=middle;whiteSpace=wrap;rounded=0;fontSize=16;" vertex="1" parent="1">
          <mxGeometry x="-708" y="415" width="81" height="30" as="geometry" />
        </mxCell>
        <mxCell id="yczUUUUAiozMbP2jTNsx-29" style="edgeStyle=none;curved=1;rounded=0;orthogonalLoop=1;jettySize=auto;html=1;exitX=0.5;exitY=0;exitDx=0;exitDy=0;entryX=0.5;entryY=1;entryDx=0;entryDy=0;fontSize=12;startSize=8;endSize=8;dashed=1;" edge="1" parent="1" source="yczUUUUAiozMbP2jTNsx-28" target="yczUUUUAiozMbP2jTNsx-25">
          <mxGeometry relative="1" as="geometry" />
        </mxCell>
        <mxCell id="yczUUUUAiozMbP2jTNsx-28" value="Attempt to Print with Insufficient Information" style="ellipse;whiteSpace=wrap;html=1;" vertex="1" parent="1">
          <mxGeometry x="-672" y="733" width="120" height="80" as="geometry" />
        </mxCell>
        <mxCell id="yczUUUUAiozMbP2jTNsx-30" value="&lt;font style=&quot;font-size: 7px;&quot;&gt;&amp;lt;&amp;lt;extends&amp;gt;&amp;gt;&lt;/font&gt;" style="text;html=1;align=center;verticalAlign=middle;resizable=0;points=[];autosize=1;strokeColor=none;fillColor=none;fontSize=16;" vertex="1" parent="1">
          <mxGeometry x="-611" y="699" width="59" height="31" as="geometry" />
        </mxCell>
        <mxCell id="yczUUUUAiozMbP2jTNsx-35" value="Bookings and Reservations" style="ellipse;whiteSpace=wrap;html=1;" vertex="1" parent="1">
          <mxGeometry x="-333" y="292" width="120" height="80" as="geometry" />
        </mxCell>
        <mxCell id="yczUUUUAiozMbP2jTNsx-39" value="Billing and Payments" style="ellipse;whiteSpace=wrap;html=1;" vertex="1" parent="1">
          <mxGeometry x="-672" y="198" width="120" height="80" as="geometry" />
        </mxCell>
        <mxCell id="ov_S_AujIY5xC-kilW1R-1" value="Adam Yuen, Shahed Issa - ENSF380 Lab 2, Group 25" style="text;html=1;align=center;verticalAlign=middle;whiteSpace=wrap;rounded=0;" vertex="1" parent="1">
          <mxGeometry x="-644" y="860" width="439" height="30" as="geometry" />
        </mxCell>
      </root>
    </mxGraphModel>
  </diagram>
</mxfile>
